<svg xmlns="http://www.w3.org/2000/svg" width="24" height="24" viewBox="0 0 24 24">
  <g id="MDI_calendar-outline" data-name="MDI / calendar-outline" transform="translate(-4505 -1266)">
    <g id="Boundary" transform="translate(4505 1266)" fill="#f2f5ff" stroke="rgba(0,0,0,0)" stroke-width="1" opacity="0">
      <rect width="24" height="24" stroke="none"/>
      <rect x="0.5" y="0.5" width="23" height="23" fill="none"/>
    </g>
    <path id="Path_calendar-outline" data-name="Path / calendar-outline" d="M19,4H18V2H16V4H8V2H6V4H5A2,2,0,0,0,3,6V20a2,2,0,0,0,2,2H19a2,2,0,0,0,2-2V6a2,2,0,0,0-2-2m0,16H5V10H19V20M19,8H5V6H19V8m-7,5h5v5H12Z" transform="translate(4505 1266)" fill="#f2f5ff"/>
  </g>
</svg>
