<svg id="Icon_ionic-ios-checkbox-outline" data-name="Icon ionic-ios-checkbox-outline" xmlns="http://www.w3.org/2000/svg" width="18" height="18" viewBox="0 0 18 18">
  <path id="Path_5" data-name="Path 5" d="M19.5,3H4.5A1.5,1.5,0,0,0,3,4.5v15A1.5,1.5,0,0,0,4.5,21h15A1.5,1.5,0,0,0,21,19.5V4.5A1.5,1.5,0,0,0,19.5,3Zm.188,16.313a.376.376,0,0,1-.375.375H4.688a.376.376,0,0,1-.375-.375V4.688a.376.376,0,0,1,.375-.375H19.313a.376.376,0,0,1,.375.375Z" transform="translate(-3 -3)" fill="#29325a"/>
  <path id="Path_6" data-name="Path 6" d="M17.044,9.042l-.825-.848a.177.177,0,0,0-.131-.056h0a.17.17,0,0,0-.131.056l-5.719,5.761L8.156,11.873a.181.181,0,0,0-.263,0l-.834.834a.187.187,0,0,0,0,.267L9.684,15.6a.83.83,0,0,0,.548.267.87.87,0,0,0,.544-.258h0l6.267-6.3A.2.2,0,0,0,17.044,9.042Z" transform="translate(-3 -3)" fill="#29325a"/>
</svg>
